<?xml version="1.0" encoding="utf-8"?>
<!-- Generator: Adobe Illustrator 25.1.0, SVG Export Plug-In . SVG Version: 6.00 Build 0)  -->
<svg version="1.1" id="Capa_1" xmlns="http://www.w3.org/2000/svg" xmlns:xlink="http://www.w3.org/1999/xlink" x="0px" y="0px"
	 width="1980px" height="1980px" viewBox="0 0 1980 1980" style="enable-background:new 0 0 1980 1980;" xml:space="preserve">
<style type="text/css">
	.st0{fill:#80BEE5;}
	.st1{fill:url(#SVGID_1_);}
	.st2{fill:url(#SVGID_2_);}
	.st3{fill:url(#SVGID_3_);}
	.st4{fill:url(#SVGID_4_);}
	.st5{fill:#A30084;}
	.st6{fill:url(#SVGID_5_);}
	.st7{fill:url(#SVGID_6_);}
	.st8{fill:url(#SVGID_7_);}
	.st9{fill:url(#SVGID_8_);}
	.st10{fill:url(#SVGID_9_);}
	.st11{fill:url(#SVGID_10_);}
	.st12{opacity:0.5;fill:url(#SVGID_11_);}
	.st13{opacity:0.5;fill:url(#SVGID_12_);}
	.st14{opacity:0.5;fill:url(#SVGID_13_);}
	.st15{fill:url(#SVGID_14_);}
	.st16{fill:#DBB309;}
	.st17{fill:url(#SVGID_15_);}
	.st18{opacity:0.26;fill:url(#SVGID_16_);}
</style>
<g>
	<g>
		<g>
			<g>
				<path class="st0" d="M976.7,1613.7c0.2,0.8,3.3-2.5,7.9-7.6c-5.6,3.3-8.5,5.3-8.5,5.3L976.7,1613.7z"/>
				<path class="st0" d="M1022.1,1573.4c-2.7-7.7-25.3,19-37.6,32.8c3.9-2.3,9.1-5.3,15.6-8.7
					C1011.9,1587.6,1023.5,1577.2,1022.1,1573.4z"/>
				
					<linearGradient id="SVGID_1_" gradientUnits="userSpaceOnUse" x1="771.256" y1="1690.3739" x2="1275.9642" y2="1690.3739" gradientTransform="matrix(0.9507 -0.3101 0.3101 0.9507 -257.2034 321.6573)">
					<stop  offset="0" style="stop-color:#6A007C"/>
					<stop  offset="1" style="stop-color:#A9004A"/>
				</linearGradient>
				<path class="st1" d="M1434.3,1637.1c17.7-20.7,34.6-42.1,51.7-63.4c7.6-9.5,1.8-23.6-10.3-25c-74.5-8.6-179.6-15.7-266.5-9.1
					c-100.1,7.7-173.5,39.1-209.1,57.7c-11.5,9.7-23.1,18.9-22.7,20.9c7.5,35.2,25.8,15.9,27.6,16c4.3,0.1-2.7,21.1,2,21.2
					c96.4,1.4,277.8,2,386.6,2c14.8,0,28.9-6.5,38.5-17.7C1432.8,1638.9,1433.6,1638,1434.3,1637.1z"/>
				
					<linearGradient id="SVGID_2_" gradientUnits="userSpaceOnUse" x1="771.256" y1="1690.3739" x2="1275.9642" y2="1690.3739" gradientTransform="matrix(0.9507 -0.3101 0.3101 0.9507 -257.2034 321.6573)">
					<stop  offset="0" style="stop-color:#6A007C"/>
					<stop  offset="1" style="stop-color:#A9004A"/>
				</linearGradient>
				<path class="st2" d="M1434.3,1637.1c17.7-20.7,34.6-42.1,51.7-63.4c7.6-9.5,1.8-23.6-10.3-25c-74.5-8.6-179.6-15.7-266.5-9.1
					c-100.1,7.7-173.5,39.1-209.1,57.7c-11.5,9.7-23.1,18.9-22.7,20.9c7.5,35.2,25.8,15.9,27.6,16c4.3,0.1-2.7,21.1,2,21.2
					c96.4,1.4,277.8,2,386.6,2c14.8,0,28.9-6.5,38.5-17.7C1432.8,1638.9,1433.6,1638,1434.3,1637.1z"/>
				
					<linearGradient id="SVGID_3_" gradientUnits="userSpaceOnUse" x1="755.8328" y1="1473.0648" x2="1352.7355" y2="1473.0648" gradientTransform="matrix(0.9507 -0.3101 0.3101 0.9507 -257.2034 321.6573)">
					<stop  offset="0" style="stop-color:#6A007C"/>
					<stop  offset="1" style="stop-color:#A9004A"/>
				</linearGradient>
				<path class="st3" d="M1467.7,1365.8c0,0,36.6-45.7,16.9-56.8c-9.6-6.1-215.1-5.5-361.3,27.7c-141.2,32-220.2,104.9-220.2,104.9
					l1,2.2c1.2,2.8,3.4-0.7,8.7,9.2c3.8,7.2,9.8,21,12.4,24.2c1.8,2.2,5.8,5.3,7.5,5c136.4-17.8,481.9-69.7,481.9-69.7
					L1467.7,1365.8z"/>
				
					<linearGradient id="SVGID_4_" gradientUnits="userSpaceOnUse" x1="755.8328" y1="1473.0648" x2="1352.7355" y2="1473.0648" gradientTransform="matrix(0.9507 -0.3101 0.3101 0.9507 -257.2034 321.6573)">
					<stop  offset="0" style="stop-color:#6A007C"/>
					<stop  offset="1" style="stop-color:#A9004A"/>
				</linearGradient>
				<path class="st4" d="M1467.7,1365.8c0,0,36.6-45.7,16.9-56.8c-9.6-6.1-215.1-5.5-361.3,27.7c-141.2,32-220.2,104.9-220.2,104.9
					l1,2.2c1.2,2.8,3.4-0.7,8.7,9.2c3.8,7.2,9.8,21,12.4,24.2c1.8,2.2,5.8,5.3,7.5,5c136.4-17.8,481.9-69.7,481.9-69.7
					L1467.7,1365.8z"/>
				<path class="st5" d="M1467.2,849c3.6,58.8-44.6,255.2-120.2,364.6c-10.3,8.2-20.7,16.2-31.3,23.9c0,0.1,0,0.1-0.1,0.1l0,0
					c-6.2,4.5-12.4,9-18.6,13.4c0,0-0.1,0-0.1,0.1c-9.8,6.8-19.6,13.4-29.5,19.9c-2.8,1.9-5.7,3.7-8.5,5.6c0,0,0,0,0,0
					c-0.2,0.1-0.4,0.3-0.7,0.4c0,0,0,0,0,0c-1.5,1-2.9,1.9-4.5,2.8c-32,20.3-64.1,38.6-95.4,55c0,0,0,0,0,0
					c-14.9,7.8-29.6,15.2-43.9,22.2c0,0,0,0-0.1,0c-4.8,2.3-9.6,4.6-14.4,6.9l-0.2,0.1c0,0.1-0.1,0.1-0.2,0.1
					c-2.9,1.4-5.7,2.7-8.5,4c0,0,0,0,0,0c-0.3,0.1-0.5,0.2-0.8,0.4l-0.1,0c-2.8,1.3-5.6,2.6-8.3,3.8c-0.2,0.1-0.4,0.2-0.6,0.3
					c-3,1.3-5.8,2.7-8.8,4c0,0,0,0-0.1,0c-4.5,2-8.9,4-13.2,5.9c-0.1,0-0.2,0.1-0.3,0.1c-13.1,5.7-25.6,11-37.5,15.9l-0.3,0.1
					c-24.1,9.9-45.5,18-63.3,24.5c0,0-0.1,0.1-0.1,0.1c-60.1,24.4-31.3,57.6-24.8,58.8c-13.2,0.6-28.9-37.8-32.7-47.5c0,0,0,0,0-0.1
					c-0.6-1.4-1.3-2.9-2.1-4.8c0-0.1-0.1-0.2-0.1-0.3l-0.2-0.5c-0.2-0.4-0.4-0.8-0.6-1.3c-0.1-0.2-0.2-0.5-0.3-0.7
					c-0.1-0.2-0.2-0.3-0.2-0.5c0,0,0,0,0-0.1c-0.8-1.9-1.7-4.1-2.7-6.5c-0.1-0.2-0.2-0.5-0.3-0.7c-0.1-0.2-0.1-0.4-0.3-0.6
					c-0.4-1.2-0.9-2.4-1.5-3.6l0-0.1c-0.1-0.3-0.3-0.6-0.4-0.9c-0.1-0.3-0.3-0.6-0.4-0.9c-0.6-1.5-1.2-2.9-1.8-4.5
					c0-0.1-0.1-0.1-0.1-0.2c-0.1-0.2-0.2-0.5-0.3-0.8c-0.6-1.5-1.3-3.1-1.9-4.7c-0.1-0.3-0.2-0.5-0.3-0.7l-0.1-0.3
					c-0.4-1-0.9-2.2-1.3-3.2c-0.2-0.4-0.4-0.8-0.5-1.2c-0.2-0.4-0.3-0.7-0.5-1.1c0-0.1-0.1-0.3-0.2-0.4c-1.7-4.1-3.5-8.6-5.5-13.5
					c0,0,0,0,0,0c-0.3-0.7-0.6-1.4-0.8-2.1c-0.1-0.2-0.2-0.5-0.3-0.8c-0.9-2.2-1.8-4.5-2.8-6.9c0-0.1-0.1-0.3-0.2-0.4c0,0,0,0,0-0.1
					c-1.2-2.9-2.4-6-3.7-9.2c-0.1-0.2-0.2-0.4-0.3-0.6c-0.1-0.3-0.3-0.7-0.4-0.9c-2.1-5.2-4.4-10.7-6.8-16.6c-0.2-0.3-0.3-0.7-0.4-1
					c-0.2-0.5-0.4-0.9-0.6-1.4c-1.3-3.2-2.6-6.5-4-9.8c-0.4-0.8-0.7-1.5-1-2.3c-0.3-0.9-0.5-1.7-0.7-2.5c0-0.3,0-0.5,0-0.7
					c0-0.6-0.1-1.2,0-1.9c0-0.2,0.1-0.4,0.1-0.7c0.1-0.6,0.3-1.3,0.6-1.9c0.1-0.2,0.1-0.3,0.1-0.5c0.5-1.1,1.2-2.1,2-3.1
					c0.2-0.2,0.4-0.4,0.6-0.6c0.2-0.2,0.5-0.4,0.8-0.7c0.3-0.2,0.6-0.4,1-0.6c0.2-0.2,0.4-0.3,0.7-0.4c0.6-0.3,1.3-0.6,1.9-0.8
					l0.1,0c7.4-2.1,14.8-4.4,22.3-6.7c2.1-0.7,4.2-1.3,6.3-2c5.7-1.8,11.5-3.7,17.3-5.6c1.9-0.7,3.7-1.3,5.6-1.9
					c7.4-2.5,14.8-5,22.2-7.7c1.3-0.5,2.7-1,4-1.5c6.2-2.2,12.3-4.5,18.5-6.9c2.2-0.8,4.3-1.6,6.5-2.5c6.2-2.4,12.3-4.8,18.5-7.3
					c1.3-0.5,2.6-1.1,4-1.6c7.3-3,14.7-6.1,22-9.3c1.8-0.8,3.7-1.6,5.5-2.4c5.7-2.5,11.4-5,17.1-7.6c2.1-0.9,4.2-1.9,6.3-2.8
					c7.3-3.4,14.6-6.8,21.8-10.4c9.8-4.8,19.5-9.7,29.2-14.9c7.8-4,15.5-8.2,23.1-12.4c2.3-1.3,4.5-2.6,6.8-3.9
					c6.6-3.7,13.1-7.5,19.6-11.3c19.5-11.5,38.6-23.6,57.3-36.4c2.7-1.8,5.3-3.8,8-5.7c2.7-1.9,5.4-3.7,8.1-5.6
					c6.1-4.3,12-8.7,17.9-13.2c1.8-1.4,3.7-2.8,5.5-4.2c4.2-3.1,8.3-6.3,12.4-9.6c2-1.6,4.1-3.2,6.1-4.8c4.1-3.2,8-6.6,12-9.8
					c1.8-1.5,3.6-3,5.4-4.5c5.6-4.8,11.2-9.6,16.7-14.4c0.8-0.7,1.6-1.4,2.4-2.1c4.1-3.7,8.1-7.3,12.1-11.1
					c6.3-5.8,12.4-11.8,18.5-17.9c1.5-1.5,3-3,4.5-4.5c12.1-12.2,23.6-24.8,34.7-37.6c1.4-1.6,2.7-3.2,4.1-4.9
					c1.6-1.9,3.2-3.8,4.7-5.7c3.9-4.6,7.6-9.3,11.4-14c0.2-0.2,0.3-0.4,0.4-0.5c0.3-0.4,0.6-0.9,1-1.3c0-0.1,0-0.1,0.1-0.1
					c3.5-4.6,6.9-9.2,10.3-13.9c1.6-2.2,3.2-4.4,4.7-6.6c3.4-4.9,6.8-9.8,10-14.8c1-1.6,2-3.2,3-4.8c2.8-4.5,5.6-9,8.3-13.5
					c0.9-1.6,1.8-3.1,2.7-4.7c0.8-1.4,8.7-16.3,11.6-21.7c0.5-1,0.9-1.6,1-1.9C1436.5,912.8,1466.8,842.4,1467.2,849z"/>
				<path class="st5" d="M1494.1,1321.2c-4.9-16.7-21-13.9-21-13.9c38,5.3-18.3,33.2-18.3,33.2l-0.5,0.5
					c-80,39.6-271,129.5-469.7,189.1c-20.3,6.1-33.4,22.2-28.4,35c13.7,34.8,22.6,58.4,28.1,73.7c1.2,3.4,3.2,6.4,5.5,8.9
					c8.1,10,18.2,8.4,52.3,8.2c-15.1,0.3-6.6-7.7,0.6-11.4c101.6-36.8,331.5-122.2,448-182.6c19.1-9.9,29.8-26.1,26.6-39.9
					l-23.2-100.9L1494.1,1321.2z"/>
				
					<linearGradient id="SVGID_5_" gradientUnits="userSpaceOnUse" x1="1284.3037" y1="1269.8461" x2="1525.1053" y2="791.8491" gradientTransform="matrix(0.9507 -0.3101 0.3101 0.9507 -257.2034 321.6573)">
					<stop  offset="0" style="stop-color:#9600AA"/>
					<stop  offset="1" style="stop-color:#9600AA"/>
				</linearGradient>
				<path class="st6" d="M1615.8,553.8c6.4,33,10.3,65.9,11.5,98.7c0,0.6,0.1,1.2,0.1,1.8c2.3,63.3-4.9,125.9-20.6,185.8
					c-10.2,38.9-24,76.6-41.1,112.8c-0.8,1.6-1.5,3.1-2.3,4.7c-2.9,6.2-6,12.4-9.2,18.5c-19.5,37.2-42.6,72.5-69,105.3
					c-28.8,35.9-61.5,68.7-97.8,97.9c0,0,0,0,0,0.1c-3.7,3.4-7.7,6.8-11.5,10.1c-1.9,1.6-3.7,3.2-5.6,4.8
					c-5.7,4.9-11.4,9.8-17.2,14.5c-2,1.6-4,3.3-6.1,4.9c1.2-1.8,2.5-3.6,3.7-5.5c73.9-112.2,82.8-285.9,83.9-298
					c0.1-0.4,0.1-0.7,0.1-0.7l1.1-2.1c2.8-5.5,5.5-11.1,8.1-16.7c0.1-0.2,0.2-0.4,0.3-0.7c3.1-6.8,6.1-13.6,8.9-20.5
					c0.3-0.6,0.5-1.3,0.7-1.9c2.7-6.6,5.2-13.2,7.6-19.9c0.4-1.2,0.8-2.4,1.2-3.6c1.5-4.4,3-8.9,4.4-13.4c0.5-1.7,1.1-3.4,1.7-5.1
					c0.6-1.9,1.1-3.8,1.6-5.7c0.3-1.2,0.7-2.5,1-3.7c1.3-4.3,2.5-8.7,3.6-13c0.6-2.3,1.1-4.6,1.6-6.9c1.2-5.2,2.5-10.5,3.6-15.8
					c0.5-2.5,0.9-5,1.4-7.5c0.4-2,0.7-4,1.1-5.9c0.6-3.2,1.2-6.3,1.7-9.5c0.4-2.4,0.7-4.8,1-7.2c0.8-5.3,1.6-10.5,2.2-15.8
					c0.3-2.7,0.5-5.3,0.7-8c0.5-5,1-10.1,1.4-15.1c0.2-2.6,0.2-5.1,0.3-7.7c0.1-1.4,0.2-2.8,0.2-4.1c0.2-3.8,0.4-7.7,0.5-11.5
					c0.1-2.4,0-4.7,0-7.1c0.1-4.6,0.1-9.1,0-13.6c0-0.9,0.1-1.8,0-2.6c0-2.1-0.2-4.2-0.3-6.3c-0.1-4.5-0.4-9-0.6-13.5
					c-0.1-1.2-0.1-2.4-0.2-3.6c0,0,0-0.1,0-0.1l0,0c-2.8-41-10.6-81.9-23.5-121.6c-9.8-30-22.1-58.4-36.6-85.2
					c-11.5-21.3-24.5-41.6-38.7-60.7c-26.2-35.2-56.7-66.5-90.4-93.4c-0.7-0.6-1.4-1.1-2.1-1.6c-5.7-4.5-11.5-8.9-17.4-13.1
					c8.9,5,19.6,11.1,31.6,18.3c80.8,48.1,221,142.2,293.2,253.1C1609.3,542.7,1612.7,548.3,1615.8,553.8z"/>
				
					<linearGradient id="SVGID_6_" gradientUnits="userSpaceOnUse" x1="1599.4105" y1="848.4714" x2="1292.9224" y2="134.8294" gradientTransform="matrix(0.9507 -0.3101 0.3101 0.9507 -257.2034 321.6573)">
					<stop  offset="0" style="stop-color:#0792CF"/>
					<stop  offset="1" style="stop-color:#0792CF"/>
				</linearGradient>
				<path class="st7" d="M1596,477.6c8.3,25.3,14.8,50.7,19.9,76.2c-78-134.7-262.8-247.5-334.9-287.9c-20.9-15.1-43-28.7-66-40.4
					c-0.6-0.3-1.3-0.6-1.9-0.9c-4.9-2.5-9.7-4.9-14.7-7.2c-4-1.9-8.1-3.7-12.2-5.5c-1-0.4-2-0.9-3-1.4c-10.7-4.6-21.5-8.8-32.5-12.6
					c-32.1-11.3-65.5-19.3-99.6-23.8c0,0,0,0,0,0c-0.1,0-0.1,0-0.1,0c-2.2-0.3-4.2-0.6-6.4-0.8l0,0c-0.1,0-0.2,0-0.2,0l0,0
					c-56.5-6.8-114.9-4.2-172.9,9.1c-8.2,2-12.7,3.1-12.7,3.1c84.7-29.6,208.8-63.3,389.3-95.8c18.3,8.2,36.2,17.3,53.6,27.2
					c1.5,0.8,2.9,1.6,4.3,2.4c13.3,7.6,26.3,15.8,39,24.4c46.8,31.6,89.6,69.5,127,112.9c0,0,0,0,0.1,0c0.7,0.8,1.4,1.7,2.2,2.5
					c2.1,2.5,4.2,5,6.3,7.5c0.4,0.5,0.9,1.1,1.3,1.6c0.4,0.5,0.8,0.9,1.1,1.4l2.6,3.3c1.3,1.6,2.5,3.2,3.8,4.8c2,2.5,4,5,5.9,7.6
					c0.8,1,1.6,2.1,2.4,3.1c0.3,0.4,0.6,0.7,0.8,1.1c0.6,0.7,1.1,1.5,1.7,2.3c2.9,3.9,5.7,7.7,8.5,11.7c0.6,0.7,1.1,1.5,1.6,2.2
					c0.5,0.7,1.1,1.5,1.6,2.2c0.5,0.7,0.9,1.4,1.4,2.1c0.7,1,1.4,1.9,2,3c0.9,1.2,1.7,2.5,2.6,3.8c0.2,0.4,0.5,0.8,0.8,1.2
					c2.7,4.2,5.4,8.5,8.1,12.7c1.7,2.7,3.5,5.5,5.3,8.2l0,0c0.7,1.2,1.5,2.4,2.2,3.7c1.2,2,2.4,4,3.5,6c1.5,2.4,2.9,4.9,4.4,7.4
					c2.3,4.1,4.7,8.2,6.9,12.4c1.2,2.1,2.3,4.3,3.4,6.4c0.8,1.4,1.5,2.9,2.2,4.3c0.4,0.7,0.8,1.4,1.1,2.1c0.7,1.2,1.3,2.5,1.9,3.7
					c0.4,0.9,0.9,1.7,1.3,2.6c0,0,0,0,0,0.1c0.1,0.1,0.1,0.2,0.2,0.3c1.1,2.1,2.1,4.3,3.2,6.4c1,2,2,4.1,2.9,6.1
					c0,0.1,0.1,0.3,0.2,0.4c0,0.1,0.2,0.3,0.2,0.5c0.6,1.2,1.2,2.5,1.8,3.7c0.4,0.8,0.8,1.7,1.2,2.5c0.3,0.7,0.6,1.3,0.9,2
					c0.7,1.6,1.5,3.2,2.2,4.7c0.5,1.2,1,2.3,1.5,3.5c0.5,1.1,1,2.2,1.5,3.3c0.9,2.1,1.8,4.1,2.6,6.2c3,7.1,5.8,14.3,8.6,21.5
					c0.8,2.2,1.7,4.5,2.6,6.7C1590.9,462.7,1593.5,470.1,1596,477.6z"/>
				
					<linearGradient id="SVGID_7_" gradientUnits="userSpaceOnUse" x1="1369.8187" y1="210.9678" x2="847.7679" y2="290.753" gradientTransform="matrix(0.9507 -0.3101 0.3101 0.9507 -257.2034 321.6573)">
					<stop  offset="0.3086" style="stop-color:#9CD538"/>
					<stop  offset="1" style="stop-color:#9CD538"/>
				</linearGradient>
				<path class="st8" d="M1247.7,89.6c-180.5,32.5-304.5,66.2-389.3,95.8c-10.7,2.7-21.4,5.8-32.1,9.3c-8.1,2.6-16,5.4-23.9,8.5
					c-128.7,49.1-226.8,146.2-280.4,264c-18.5,40.6-31.7,83.6-39.1,127.9c-1.4,8.6-2.6,17.2-3.6,25.9
					c-18.4-199.3,29.5-339.5,78.6-427.1c8.7-7.6,17.5-15,26.6-22.2c0-0.1,0-0.1,0-0.1c19.5-15.4,40-29.8,61.5-43
					c35.5-21.8,73.6-40.4,114-55.3c8.9-3.3,17.9-6.4,27.1-9.4C945,13.4,1107.8,26.7,1247.7,89.6z"/>
				
					<linearGradient id="SVGID_8_" gradientUnits="userSpaceOnUse" x1="863.8911" y1="954.1798" x2="557.8539" y2="241.5882" gradientTransform="matrix(0.9507 -0.3101 0.3101 0.9507 -257.2034 321.6573)">
					<stop  offset="0" style="stop-color:#FBD538"/>
					<stop  offset="1" style="stop-color:#FBD538"/>
				</linearGradient>
				<path class="st9" d="M507.2,847.2l0.1,0.3c1.7,5.1,3.4,10.1,5.2,15.1c0.4,1,0.8,2,1.2,3.1c1,2.8,2,5.6,3.1,8.3
					c0.5,1.4,1.1,2.7,1.6,4.1c1,2.5,2,5,3,7.4c0.6,1.4,1.2,2.9,1.8,4.3c1,2.4,2.1,4.8,3.1,7.2c0.6,1.3,1.3,2.7,1.8,4
					c1.7,3.6,3.4,7.2,5.1,10.7c1,2,2,3.9,3.1,5.9c1.1,2,2.1,3.9,3.1,5.9c1.5,2.6,3,5.2,4.5,7.8c0.7,1.2,1.4,2.4,2.1,3.6
					c19.5,33.2,42.5,63.6,68.2,91c16.4,18.9,35,37.8,55.9,56.1c8.5,7.5,17.4,14.9,26.8,22.1c-112.4-70-259.4-181-345.9-305.2
					c0-0.3-0.1-0.6-0.2-0.9c-0.7-3.6-1.3-7.2-1.9-10.9c-0.5-2.9-1-5.7-1.5-8.6c-0.7-4-1.2-8-1.8-12c-0.4-2.4-0.7-4.8-1-7.2
					c-0.6-4.4-1.1-8.9-1.6-13.3c-0.2-1.9-0.3-3.7-0.6-5.5c-0.5-5-0.9-10-1.3-15c0-0.4,0-0.8-0.1-1.2c0-0.6-0.1-1.2-0.1-1.7
					c-0.5-6.1-0.8-12.3-1.1-18.4c0-1.6-0.1-3.2-0.2-4.8c-0.2-5.4-0.3-10.8-0.3-16.3c0-2.1,0-4.2,0-6.2c0-5,0-9.8,0.2-14.8
					c0-2.4,0.1-4.8,0.2-7.3c0.2-4.6,0.4-9.1,0.6-13.7c0.2-2.6,0.3-5.3,0.5-7.9c0.3-4.4,0.7-8.7,1.1-13c0.3-2.8,0.5-5.5,0.8-8.3
					c0.5-4.3,1-8.6,1.5-12.9c0.3-2.7,0.7-5.5,1-8.2c0.6-4.6,1.4-9.1,2.1-13.7c0.4-2.4,0.7-4.8,1.1-7.1c1.2-6.9,2.4-13.8,3.8-20.6
					c1.8-8.8,3.8-17.5,5.9-26.1c0.5-2.1,1.1-4.3,1.7-6.5c1.7-6.4,3.3-12.7,5.2-19c1.1-3.8,2.3-7.5,3.5-11.2
					c1.4-4.6,2.8-9.2,4.3-13.7c1.7-4.9,3.4-9.7,5.2-14.5c1-2.8,2-5.8,3-8.6c0.2-0.5,0.4-0.9,0.6-1.4c1.5-4.1,3.1-8.1,4.8-12.1
					c0.9-2,1.7-4.1,2.6-6.2c1.1-2.7,2.1-5.3,3.3-7.9c2.3-5.3,4.8-10.6,7.2-15.9c1.5-3.2,2.9-6.5,4.5-9.7c1.9-3.9,3.9-7.7,5.8-11.5
					c6.5-12.7,13.2-25.1,20.4-37.4c0-0.1,0-0.1,0.1-0.1c6.9-11.6,14.3-23.1,21.9-34.3c1.2-1.7,2.3-3.4,3.6-5.1
					c7.5-10.8,15.4-21.3,23.5-31.6c2.1-2.8,4.3-5.5,6.6-8.2c1.1-1.4,2.3-2.8,3.5-4.1c5.2-6.3,10.4-12.4,15.8-18.3
					c12.2-13.5,25-26.6,38.4-39.1c4.6-4.4,9.4-8.7,14.2-12.9c-49.1,87.7-97.1,227.8-78.6,427.1c-3.1,27.3-4,55-2.5,82.9
					c0,0.5,0,0.9,0.1,1.5c0.1,1.5,0.2,3,0.3,4.4c0.3,5,0.7,10,1.1,14.9c0.9,5.3,1.8,10.5,2.7,15.7c0.4,1.9,0.7,3.9,1,5.8
					c0.7,3.6,1.4,7.1,2.1,10.7c0.4,1.9,0.7,3.8,1.1,5.7c1,4.7,2,9.4,3,14.2c0.4,2.2,0.9,4.3,1.4,6.5c0.7,3.1,1.5,6.1,2.2,9.1
					c0.5,2.2,1,4.3,1.5,6.5c1.2,4.6,2.4,9.2,3.6,13.9c0.4,1.5,0.8,3.1,1.3,4.7c1,3.6,2,7.1,3,10.6c0.5,1.7,1,3.4,1.5,5
					C504.3,837.8,505.7,842.5,507.2,847.2z"/>
				
					<linearGradient id="SVGID_9_" gradientUnits="userSpaceOnUse" x1="793.5319" y1="1317.73" x2="492.0948" y2="615.8494" gradientTransform="matrix(0.9507 -0.3101 0.3101 0.9507 -257.2034 321.6573)">
					<stop  offset="0" style="stop-color:#FE1F27"/>
					<stop  offset="0.7169" style="stop-color:#FE1F27"/>
				</linearGradient>
				<path class="st10" d="M1023,1225.4c-22.8,10.7-44.5,19.9-64.3,27.8c-26.6,10.6-51.5,19.4-73.9,26.7
					c-17.4,5.7-33.3,10.4-47.1,14.3c-7.2,2-13.9,3.8-19.9,5.4c-0.9-0.2-1.8-0.5-2.7-0.7c-0.5-0.1-0.9-0.2-1.3-0.4
					c-1.2-0.3-2.4-0.7-3.6-1c-8.4-2.3-16.7-4.8-24.9-7.5c-37.9-12.4-74.5-28.1-109.4-47.1c-98.7-53.7-183.6-133.2-243.6-232.9
					c-24.8-41.1-45.3-85.5-60.8-133c-2.2-6.6-4.2-13.2-6.1-19.9c-0.7-2.3-1.3-4.7-2-7c-1.2-4.3-2.3-8.5-3.5-12.8
					c-0.7-2.9-1.4-5.9-2.1-8.8c-0.9-3.7-1.8-7.3-2.6-11c-0.7-3.3-1.4-6.6-2.1-9.9c-0.6-3-1.2-6-1.8-8.9
					C437.7,923,584.8,1034,697.1,1104c2,1.5,4,3.1,6.1,4.6c42.7,32.1,93.6,61,154.1,82.3c12.5,4.5,25.4,8.5,38.6,12.2
					c14.8,4.1,30,7.8,45.7,10.9C967.3,1219.3,994.4,1223.1,1023,1225.4z"/>
				
					<linearGradient id="SVGID_10_" gradientUnits="userSpaceOnUse" x1="430.4907" y1="814.2448" x2="664.6974" y2="814.2448" gradientTransform="matrix(0.9507 -0.3101 0.3101 0.9507 -257.2034 321.6573)">
					<stop  offset="0" style="stop-color:#FBD538"/>
					<stop  offset="1" style="stop-color:#FBD538"/>
				</linearGradient>
				<path class="st11" d="M697.1,1104c-112.4-70-259.4-181-345.9-305.2c0-0.3-0.1-0.6-0.2-0.9c-0.7-3.6-1.3-7.2-1.9-10.9
					c-0.5-2.9-1-5.7-1.5-8.6c-0.7-4-1.2-8-1.8-12c-0.4-2.4-0.7-4.8-1-7.2c-0.6-4.4-4.2-16.9-1.6-13.3
					c133.7,190.9,169.9,220.6,327.1,335.9C678.9,1089.4,687.8,1096.8,697.1,1104z"/>
				
					<linearGradient id="SVGID_11_" gradientUnits="userSpaceOnUse" x1="607.3867" y1="304.8311" x2="918.5621" y2="304.8311" gradientTransform="matrix(0.9507 -0.3101 0.3101 0.9507 -257.2034 321.6573)">
					<stop  offset="0" style="stop-color:#33A668"/>
					<stop  offset="0.1641" style="stop-color:#3CAA64"/>
					<stop  offset="0.4352" style="stop-color:#55B558"/>
					<stop  offset="0.7777" style="stop-color:#7EC846"/>
					<stop  offset="1" style="stop-color:#9CD538"/>
				</linearGradient>
				<path class="st12" d="M646,128.7c-33.2,25.3-160.7,144.7-166.7,492.4c-18.4-199.3,29.5-339.5,78.6-427.1
					c8.7-7.6,17.5-15,26.6-22.2c0-0.1,0-0.1,0-0.1C604.1,156.2,624.5,141.9,646,128.7z"/>
				
					<linearGradient id="SVGID_12_" gradientUnits="userSpaceOnUse" x1="1102.8563" y1="252.3336" x2="1545.1718" y2="252.3336" gradientTransform="matrix(0.9507 -0.3101 0.3101 0.9507 -257.2034 321.6573)">
					<stop  offset="0" style="stop-color:#0792CF"/>
					<stop  offset="1" style="stop-color:#0792CF"/>
				</linearGradient>
				<path class="st13" d="M1301.3,116.8c-118.5-6.7-370.7,51.4-430.1,65.6c-8.2,2-12.7,3.1-12.7,3.1
					c84.7-29.6,208.8-63.3,389.3-95.8C1266,97.8,1283.9,106.9,1301.3,116.8z"/>
				
					<linearGradient id="SVGID_13_" gradientUnits="userSpaceOnUse" x1="1479.6034" y1="662.3209" x2="1708.7427" y2="662.3209" gradientTransform="matrix(0.9507 -0.3101 0.3101 0.9507 -257.2034 321.6573)">
					<stop  offset="0" style="stop-color:#9600AA"/>
					<stop  offset="1" style="stop-color:#2995CF"/>
				</linearGradient>
				<path class="st14" d="M1615.8,553.8c6.4,33,10.3,65.9,11.5,98.7c0,0.6,0.1,1.2,0.1,1.8C1558.7,471.1,1374,330.6,1298.3,279
					c-5.7-4.5-11.5-8.9-17.4-13.1c8.9,5,19.6,11.1,31.6,18.3c80.8,48.1,221,142.2,293.2,253.1
					C1609.3,542.7,1612.7,548.3,1615.8,553.8z"/>
				
					<linearGradient id="SVGID_14_" gradientUnits="userSpaceOnUse" x1="1155.051" y1="1229.7721" x2="1425.9429" y2="1229.7721" gradientTransform="matrix(0.9507 -0.3101 0.3101 0.9507 -257.2034 321.6573)">
					<stop  offset="0" style="stop-color:#A9004A"/>
					<stop  offset="1" style="stop-color:#6A007C"/>
				</linearGradient>
				<path class="st15" d="M1434.6,910.2c-1.1,12.1-10,185.8-83.9,298c-1.2,1.8-2.5,3.7-3.7,5.5c-10.3,8.2-20.7,16.2-31.3,23.9
					c0,0.1,0,0.1-0.1,0.1l0,0c-6.2,4.5-12.4,9-18.6,13.4c0,0-0.1,0-0.1,0.1c-9.8,6.8-19.6,13.4-29.5,19.9
					C1393.2,1134.9,1432.2,923.7,1434.6,910.2z"/>
			</g>
		</g>
	</g>
	<g>
		<path class="st16" d="M905.7,519.3l-70.1,374.1c-2.1,10.9,8.9,19.7,19.1,15.2l150.8-66.2c8-3.5,17.3,1.2,19.1,9.8l38.4,186
			c3,14.6,23.9,14.7,27,0.1l89.2-414.5c2.6-12.1-10.8-21.2-21.1-14.4l-142.5,94.7c-7.7,5.1-22.2,15.1-24.9,6.2l-58.3-192.4
			C928.2,504.1,908.4,505.1,905.7,519.3z"/>
		
			<linearGradient id="SVGID_15_" gradientUnits="userSpaceOnUse" x1="844.3173" y1="782.8939" x2="1237.626" y2="782.8939" gradientTransform="matrix(0.9793 -0.2023 0.2023 0.9793 -176.0907 198.2043)">
			<stop  offset="0" style="stop-color:#FBD538"/>
			<stop  offset="1" style="stop-color:#FBD538"/>
		</linearGradient>
		<path class="st17" d="M901.7,490.1l-74.1,387.7c-2.1,10.9,8.9,19.7,19.1,15.2l150.8-66.2c8-3.5,17.3,1.2,19.1,9.8l38.4,186
			c3,14.6,23.9,14.7,27,0.1l89.2-414.5c2.6-12.1-10.8-21.2-21.1-14.4l-142.5,94.7c-7.7,5.1-18.2,1.4-20.8-7.5l-58.3-192.4
			C924.3,474.9,904.4,476,901.7,490.1z"/>
	</g>
</g>
<radialGradient id="SVGID_16_" cx="934.5221" cy="2268.3799" r="316.9788" gradientTransform="matrix(2.9568 0 0 0.4888 -1779.4481 666.3307)" gradientUnits="userSpaceOnUse">
	<stop  offset="4.950500e-03" style="stop-color:#000000"/>
	<stop  offset="1" style="stop-color:#FFFFFF;stop-opacity:0"/>
</radialGradient>
<path class="st18" d="M1921,1775.1c0,85.6-419.6,154.9-937.2,154.9s-937.2-69.4-937.2-154.9c0-85.6,419.6-154.9,937.2-154.9
	S1921,1689.5,1921,1775.1z"/>
</svg>
